<svg xmlns="http://www.w3.org/2000/svg" xmlns:xlink="http://www.w3.org/1999/xlink" width="64" height="64" viewBox="0 0 16.933 16.933"><defs><linearGradient id="a"><stop offset="0" stop-color="#804000"/><stop offset="1" stop-color="#408000"/></linearGradient><linearGradient xlink:href="#a" id="b" x1="79.866" x2="79.866" y1="118.361" y2="111.041" gradientUnits="userSpaceOnUse"/></defs><g stroke-width=".487042" ><path fill="url(#b)" d="M79.924 112.198q0 .248-.1.472l-.483 1.081-.179.39h2.85q.399 0 .682-.283.148-.148.327-.176.182-.027.348.042.169.069.275.22.11.148.11.355v1.082q0 .617-.23 1.157-.231.541-.641.951-.41.41-.95.641-.538.23-1.158.23H78.79q-.465 0-.871-.175-.403-.172-.71-.479-.307-.306-.482-.71-.173-.406-.173-.871 0-.258.059-.496.062-.238.148-.458.052-.131.114-.266l.127-.272q.042-.086.08-.169.04-.086.075-.168l.048-.11.021-.045h.004l.272-.59.127-.279h-.455q-.306 0-.527-.217-.217-.22-.217-.527 0-.103.073-.175.075-.076.179-.076h.082q.235 0 .393-.169v-.003l.765-.775v.003q.158-.148.365-.234.21-.09.448-.09.327 0 .596.162.272.158.43.43.163.27.163.597z" transform="matrix(2.05707 0 0 2.04936 -156.29 -226.564)"/><path fill="#fff" d="M77.543 114.048h1.388l.118-.249H77.66z" transform="matrix(2.05707 0 0 2.04936 -156.29 -226.564)"/><path fill="#a0a0a0" d="M78.294 116.225v1.567q.241.073.496.073h1.985q.434 0 .826-.142.393-.137.71-.389H80.18q-.455 0-.844-.2-.39-.196-.655-.537-.262-.341-.351-.772-.035.2-.035.4z" transform="matrix(2.05707 0 0 2.04936 -156.29 -226.564)"/><path fill="#e0f0f0" d="M82.011 114.637h-3.007q-.1.01-.172.082-.073.073-.145.21l-.004.007-.02.042q-.066.127-.093.234-.024.103-.024.262h-.004q.007.448.228.813.224.365.592.582.369.217.817.217h2.37q.33-.337.52-.782.19-.448.19-.954v-1.05q0-.084-.08-.115-.075-.034-.134.025-.427.427-1.034.427z" transform="matrix(2.05707 0 0 2.04936 -156.29 -226.564)"/><path fill="#ff0" d="M77.336 112.277q-.23.248-.571.248h-.083v.003h-.004q0 .203.145.351.145.145.352.145h.496v-1.089z" transform="matrix(2.05707 0 0 2.04936 -156.29 -226.564)"/><path d="M78.918 112.284q0-.104-.073-.176-.072-.072-.175-.072-.104 0-.176.072t-.072.176q0 .103.072.175.072.073.176.073.103 0 .175-.073.073-.072.073-.175z" transform="matrix(2.05707 0 0 2.04936 -156.29 -226.564)"/></g></svg>