<svg width="512" height="256" viewBox="0 0 135.467 67.733" xmlns="http://www.w3.org/2000/svg"><path style="color:#000;-inkscape-font-specification:'Playfair Display SC, Normal';display:inline;fill:#fff;fill-opacity:1;stroke:#000;stroke-width:3.175;stroke-linecap:round;stroke-linejoin:round;stroke-miterlimit:13.2;stroke-dasharray:none;stroke-opacity:1;paint-order:markers stroke fill" d="M77.319 91.692c-.342-1.578-.823-2.912-1.46-4.025-.44-.929-.934-1.616-1.51-2.066-.573-.49-1.185-.728-1.845-.696-1.848.09-3.402 2.232-3.988 6.7-.595 4.467-.294 9.862.224 16.551.512 6.6 1.058 11.994 2.167 15.892 1.11 3.903 2.658 5.045 4.27 4.267.544-.262 1.047-.732 1.521-1.383.485-.692.873-1.52 1.174-2.5.515-1.21.865-2.604 1.037-4.246.18-1.574.335-4.172.351-7.525l.577-.14c.251 7.546.387 12.633.772 14.504-.18.103-.362.205-.543.306-.206-.895-.322-1.492-.468-1.892-.122-.406-.258-.586-.42-.515-.129.057-.288.264-.474.622-.624 1.368-1.208 2.504-1.764 3.375a5.999 5.999 0 0 1-2.216 2.017c-1.688.882-3.355-.193-4.893-1.447-1.545-1.28-2.771-3.656-3.712-7.185-.932-3.538-1.478-7.978-1.9-13.07-.41-4.938-.586-9.416-.205-13.322.388-3.967 1.295-7.021 2.78-9.267 1.486-2.223 3.312-3.268 5.213-3.317v0h0c1.108-.03 2.006.298 2.714.945.706.646 1.385 1.557 2.073 2.73.189.342.358.507.502.497.362-.026.552-1.253.946-3.48l.634-.01c-.507 3.135-.458 6.486.159 14.68-.254.032-.24.05-.597.095-.39-3.081-.798-5.61-1.12-7.095zm19.089 25.046c.523 1.261 1.159 1.487 1.746 1.33.012.145.025 1.335.042 1.452-.842.247-2.02.627-3.457 1.157-1.852.682-3.235 1.265-4.088 1.67-.025-.17-.048-1.413-.068-1.608.562-.258.98-.514 1.242-.773.263-.28.382-.617.362-1.074-.017-.412-.147-.924-.387-1.603-.458-1.43-.91-3.249-1.371-5.217-1.847.412-3.667.837-5.484 1.274-.093.547-.188 1.083-.283 1.615-.445 2.615-.648 4.36-.602 5.525.041 1.051.278 1.665.686 1.931.407.267.98.241 1.714-.018.025.229.054 1.504.087 1.71-.97.367-1.939.766-2.906 1.212-.586.27-1.07.513-1.459.73a9.078 9.078 0 0 0-.511.367c-.043-.254-.081-1.576-.115-1.85.174-.162.335-.385.482-.666.169-.29.324-.653.47-1.097.286-.868.612-2.211.958-4.048 1.605-8.806 2.521-20.951 4.539-29.83.146.026.357.03.632.013.294-.018.505-.05.634-.093 1.018 4.55 6.657 26.691 7.137 27.89zm-6.233-5.726c-1.223-5.286-1.628-7.17-3.072-12.93-.706 5.416-1.09 8.795-1.948 14.042 1.664-.381 3.331-.752 5.02-1.112zm26.36 2.72c-.437.345-.977 1.582-1.52 1.724-.498.13-1.285.272-2.062.409-1.02.179-1.892.328-2.444.285-.58-.047-.958-1.325-1.126-1.886-.27-.888-.524-2.262-.784-3.922-.2-1.614-.51-2.827-.94-3.396-.407-.602-1.013-.871-1.819-.772l-.904.113c.034 3.503.011 5.345.009 7.688-.001.837.05 1.282.146 1.523.114.234.312.33.586.339.295.003.74-.06 1.343-.174.006.102.013 1.247.021 1.319a71.38 71.38 0 0 0-4.419 1.115 45.383 45.383 0 0 0-3.558 1.159c-.016-.114-.029-1.3-.04-1.44.6-.216.857-.365 1.118-.53.262-.163.432-.382.512-.697.098-.32.143-.841.14-1.734-.013-4.678-.17-13.484-.35-20.893-.034-1.42-.103-2.398-.218-2.985-.097-.59-.281-.97-.559-1.16-.277-.189-.73-.3-1.36-.336.003-.338.008-.671.015-.998.873.062 2.106.057 3.728-.003 1.06-.055 2.121-.107 3.184-.155.373-.042.793-.07 1.26-.084 2.482-.07 4.368.49 5.581 1.745 1.249 1.24 1.89 3.106 1.922 5.75.028 2.28-.439 4.346-1.402 6.143-.963 1.797-2.59 2.987-4.862 3.7.257-.028.523-.005.8.072 1.327.138 2.367.595 3.128 1.313.78.718 1.282 1.887 1.52 3.281.188 1.178.375 2.176.567 2.912.127.46.288.69.473.803.183.112.422.134.697.097.376-.05.796-.202 1.19-.517zm-10.422-24.594c-.41.015-.72.138-.926.373-.206.235-.349.65-.42 1.266-.073.62-.102 1.553-.078 2.873.07 3.729.189 7.84.235 11.556.393-.048.786-.094 1.18-.14 1.352-.157 2.279-.932 2.756-2.378.499-1.458.723-3.487.678-6.084-.047-2.734-.334-4.629-.857-5.805-.502-1.173-1.359-1.704-2.568-1.66h0zm28.467-.354c-.617.14-1.075.358-1.374.659-.28.3-.477.79-.59 1.501-.094.711-.144 1.826-.15 3.419-.03 8.416-.009 19.62-.022 20.303-.618-.025.582-.002-1.48-.066-1.072-.236-2.145-2.352-3.216-3.955-2.572-3.837-5.369-11.341-8.016-17.312.033 6.285.076 13.837.06 17.81-.003.967.069 1.489.218 1.793.148.288.42.424.811.485.392.061 1.006.07 1.846.056l.003 1.203c-.831.038-1.907.105-3.182.224a51.117 51.117 0 0 0-2.42.278c-.003-.04-.015-1.244-.017-1.317.244.117 1.066-.119 1.342-.238.296-.122.491-.3.584-.61.111-.312.17-.842.173-1.831.017-4.063-.034-11.837-.067-18.202-.007-1.314-.064-2.203-.176-2.739-.093-.536-.288-.882-.587-1.058-.28-.176-.73-.288-1.348-.337.002-.297.007-.587.012-.869.599.077 1.411.108 2.443.097a42.982 42.982 0 0 0 3.433-.154c1.657 3.058 3.224 6.807 4.888 10.828 1.354 3.282 2.692 6.537 4.042 9.196-.003-4.81.014-7.965.032-13.593.005-1.558-.068-2.656-.218-3.371-.149-.746-.43-1.253-.843-1.557-.393-.304-1.827-.673-1.827-.673v-.847s1.888.126 3.2.132c1.049.005 1.86-.031 2.44-.11zm10.126.182c-.633.044-1.09.155-1.37.334-.278.179-.473.531-.585 1.078-.094.548-.144 1.457-.158 2.795-.073 6.974-.156 15.53-.121 19.477.007.752.056 1.149.148 1.38.11.233.306.378.58.481.274.103.726.214 1.349.345-.001.09-.003 1.223-.007 1.281a64.85 64.85 0 0 0-4.084-.71 73.706 73.706 0 0 0-4.306-.495l.002-1.218c.632.043 1.086.062 1.365.04.277-.021.464-.102.555-.293.11-.19.163-.548.157-1.272-.029-3.79.03-12.29.077-19.169.01-1.321-.045-2.215-.157-2.76-.094-.542-.292-.895-.592-1.08-.282-.186-.732-.311-1.35-.378l-.007-.86c.92.093 2.365.15 4.349.181 1.817.028 3.189.013 4.143-.055.006.291.01.591.012.898zm16.556-.174c.812.042 1.482.028 2.016-.047.003.346.003.699.002 1.056-.48.326-.927.995-1.355 2.04-.424 1.003-.902 2.577-1.423 4.743-2.017 8.55-4.13 20.668-5.71 22.155-.552-.029-1.393-.291-1.828-.503-1.379-4.31-3.397-15.452-5.888-26.016-.512-2.178-1.125-3.159-1.754-3.237a69.26 69.26 0 0 0-.013-.902c.88.107 2.1.18 3.665.225 1.998.056 3.451.061 4.403 0 .006.313.01.634.012.96-.611.04-1.066.2-1.362.483-.297.252-.445.693-.45 1.348-.007.656.103 1.477.323 2.484 1.358 6.523 2.615 14.286 4.068 19.632.775-2.758 1.96-8.123 2.925-12.249.686-3.02 1.077-5.424 1.132-7.185.087-2.787-.666-4.117-2.164-4.298 0-.34-.003-.674-.009-1.002 1.057.144 2.193.25 3.41.313v0zm13.278 32.972c.393 2.183.811 3.32 1.36 3.63-.032.293-.068 1.636-.109 1.912-1.748-1.005-2.116-1.18-3.226-1.66-1.769-.823-3.123-1.387-3.98-1.703.026-.206.049-1.482.07-1.71.563.186.987.244 1.274.156.288-.113.45-.432.479-.99.025-.504-.06-1.202-.262-2.125a258.393 258.393 0 0 1-1.194-6.34c-1.825-.431-3.21-.753-5.064-1.154-.44 1.923-1.113 3.925-1.187 5.907-.012.862.091 1.364.458 1.825.362.455.635.749 1.368 1.07-.015.195-.032 1.438-.052 1.61a43.21 43.21 0 0 0-2.971-1.242 25.103 25.103 0 0 0-2.126-.714c.013-.134.025-1.34.035-1.5.422.061.831-.048 1.194-.443.387-.416.785-1.166 1.197-2.532 1.89-6.48 4.57-18.142 6.486-26.82.147.046.357.08.632.098.293.02.503.016.631-.012 1.816 8.27 2.6 19.14 4.13 27.892.332 1.903.524 2.943.857 4.845zm-5.8-10.034c-.43-2.56-.748-4.708-1.05-6.882-.672-4.84.105.687-.796-5.91-1.464 5.886-1.5 6.399-2.76 11.79 1.696.352 2.935.626 4.607 1.002zm15.217 19.423c-2.511-1.197-5.326-2.63-7.205-3.447.042-.282.08-1.632.113-1.932.567.195.66.165.928.084.266-.08.47-.38.597-.92.146-.538.26-1.463.318-2.88.306-7.366.673-16.64 1.373-25.215.135-1.654.167-2.818.106-3.56-.042-.732-.204-1.237-.479-1.521-.256-.283-.68-.498-1.272-.646.018-.411.032-.82.043-1.226.924.215 2.342.423 4.272.65 1.698.198 2.991.302 3.919.292-.024.435-.082 1.307-.082 1.307-.538.056-1.04.097-1.349.337-.286.223-.508.694-.673 1.417-.146.716-.296 1.927-.453 3.587-.845 8.973-1.18 18.554-1.632 26.586-.069 1.216-.1 2.105-.071 2.694.045.6.156 1.03.344 1.308.187.275.491.511.91.7l.94.42c.217.097.432.153.644.165.827.048 1.64-.561 2.366-1.956.64-1.253 1.155-3.155 1.564-5.844.186-1.217.344-2.553.494-4.053l.568.117a.061.061 0 0 0 .005.01 299.333 299.333 0 0 0-.306 5.603c-.078 1.601-.175 3.64-.618 7.495-.237 1.842-.8 2.744-1.114 2.571-1.983-.973-1.739-.945-4.25-2.143z" transform="translate(-59.27 -78.795)"/></svg>